<?xml version="1.0" encoding="UTF-8" standalone="no"?>
<!-- Created with Inkscape (http://www.inkscape.org/) -->

<svg
   xmlns:dc="http://purl.org/dc/elements/1.1/"
   xmlns:cc="http://creativecommons.org/ns#"
   xmlns:rdf="http://www.w3.org/1999/02/22-rdf-syntax-ns#"
   xmlns:svg="http://www.w3.org/2000/svg"
   xmlns="http://www.w3.org/2000/svg"
   xmlns:sodipodi="http://sodipodi.sourceforge.net/DTD/sodipodi-0.dtd"
   xmlns:inkscape="http://www.inkscape.org/namespaces/inkscape"
   width="210mm"
   height="297mm"
   viewBox="0 0 210 297"
   version="1.1"
   id="svg8"
   inkscape:version="0.92.3 (2405546, 2018-03-11)"
   sodipodi:docname="icons.svg">
  <defs
     id="defs2" />
  <sodipodi:namedview
     id="base"
     pagecolor="#ffffff"
     bordercolor="#666666"
     borderopacity="1.0"
     inkscape:pageopacity="0.0"
     inkscape:pageshadow="2"
     inkscape:zoom="0.41608879"
     inkscape:cx="202.79095"
     inkscape:cy="1053.9632"
     inkscape:document-units="mm"
     inkscape:current-layer="layer1"
     showgrid="false"
     inkscape:snap-object-midpoints="true"
     inkscape:window-width="1853"
     inkscape:window-height="1025"
     inkscape:window-x="1147"
     inkscape:window-y="867"
     inkscape:window-maximized="1" />
  <metadata
     id="metadata5">
    <rdf:RDF>
      <cc:Work
         rdf:about="">
        <dc:format>image/svg+xml</dc:format>
        <dc:type
           rdf:resource="http://purl.org/dc/dcmitype/StillImage" />
        <dc:title></dc:title>
      </cc:Work>
    </rdf:RDF>
  </metadata>
  <g
     inkscape:label="Layer 1"
     inkscape:groupmode="layer"
     id="layer1">
    <path
       style="opacity:1;fill:#343a40;fill-opacity:1;fill-rule:evenodd;stroke:none;stroke-width:0.75824451;stroke-linecap:butt;stroke-linejoin:round;stroke-miterlimit:4;stroke-dasharray:none;stroke-dashoffset:0;stroke-opacity:1"
       d="M 378.88477 28.369141 A 188.97638 188.97638 0 0 0 189.9082 217.34375 A 188.97638 188.97638 0 0 0 378.88477 406.32031 A 188.97638 188.97638 0 0 0 567.86133 217.34375 A 188.97638 188.97638 0 0 0 378.88477 28.369141 z M 277.19727 135.57617 L 480.57617 135.57617 C 492.19508 135.57617 501.7168 145.1057 501.7168 156.72461 L 501.7168 277.96484 C 501.7168 289.58375 492.19508 299.11328 480.57617 299.11328 L 277.19727 299.11328 C 265.57836 299.11328 256.04883 289.58375 256.04883 277.96484 L 256.04883 156.72461 C 256.04883 145.1057 265.57836 135.57617 277.19727 135.57617 z M 279.69727 146.57422 L 378.88281 226.46875 L 478.07617 146.57422 L 279.69727 146.57422 z M 268.39648 151.59375 C 267.54032 153.08979 267.04688 154.83427 267.04688 156.72461 L 267.04688 277.96484 C 267.04688 278.49826 267.09718 279.01684 267.17188 279.52539 L 345.42188 213.63672 L 268.39648 151.59375 z M 489.37305 151.59766 L 412.34375 213.63867 L 490.59375 279.52539 C 490.66833 279.01684 490.71875 278.49826 490.71875 277.96484 L 490.71875 156.72461 C 490.71875 154.83587 490.22678 153.09286 489.37305 151.59766 z M 354.15039 220.66797 L 274.47852 287.75391 C 275.34165 287.98353 276.24928 288.11523 277.19727 288.11523 L 480.57617 288.11523 C 481.52349 288.11523 482.43071 287.98322 483.29297 287.75391 L 403.61719 220.66797 L 378.88281 240.58984 L 354.15039 220.66797 z "
       transform="scale(0.26458333)"
       id="path819"
       inkscape:export-xdpi="500"
       inkscape:export-ydpi="500" />
    <path
       style="opacity:1;fill:#343a40;fill-opacity:1;fill-rule:evenodd;stroke:none;stroke-width:0.75824451;stroke-linecap:butt;stroke-linejoin:round;stroke-miterlimit:4;stroke-dasharray:none;stroke-dashoffset:0;stroke-opacity:1"
       d="M 376.86523 418.28711 A 188.97638 188.97638 0 0 0 187.88867 607.26367 A 188.97638 188.97638 0 0 0 376.86523 796.24023 A 188.97638 188.97638 0 0 0 565.8418 607.26367 A 188.97638 188.97638 0 0 0 376.86523 418.28711 z M 348.69922 486.2832 L 416.4043 486.29102 L 484.10938 486.29883 L 477.24023 492.54102 L 470.37109 498.7832 L 470.37109 504.04492 C 470.37109 507.56253 471.18379 511.09221 472.82422 514.70117 C 475.07081 519.64362 475.28661 521.33687 475.38477 534.81641 C 475.44373 542.91163 475.84464 561.75994 476.27539 576.70117 C 477.22379 609.59712 477.3379 609.16915 467.73242 608.70117 C 462.03516 608.42375 461.68154 608.25393 459.93555 604.99023 C 457.70668 600.82395 457.61486 594.60775 459.14258 551.49805 C 460.1502 523.06519 460.37537 520.67832 462.59766 514.92773 C 463.90522 511.54404 464.96921 508.0119 464.96094 507.07812 C 464.91672 502.11239 463.33956 502.81369 447.71484 514.75586 C 439.12904 521.31806 430.85692 527.85321 429.33203 529.2793 C 426.08893 532.31229 426.15314 534.48781 429.75586 543.64844 C 431.66218 548.49572 432.07417 551.35516 432.08789 559.83789 C 432.10301 569.12105 431.83491 570.68743 429.39258 575.66016 C 426.75658 581.02773 424.60541 583.30204 410.54492 595.58203 C 400.49864 604.35624 398.04216 611.64747 402.22266 620.2832 C 404.2472 624.46536 409.03842 628.63762 420.05469 635.81445 C 440.99085 649.45382 448.91126 674.56505 438.95508 695.74023 C 428.83993 717.25349 394.09524 731.43697 360.85352 727.62305 L 360.85352 727.625 C 341.97092 725.4585 324.98835 718.80127 316.15234 710.10352 C 305.05898 699.18374 302.26323 683.07675 309.03516 669.08789 C 315.52302 655.68572 340.04463 643.77342 368.32227 640.28711 C 384.83777 638.25093 383.9216 638.53191 382.10742 636.07227 C 377.0745 629.24859 375.20654 620.17638 376.98242 611.18945 L 377.79102 607.09961 L 372.07617 606.51172 C 352.8863 604.54221 342.8023 600.68466 334.11914 591.99023 C 326.54584 584.40707 320.73242 570.79015 320.73242 560.63086 L 320.73242 556.92969 L 295.17773 556.66797 L 269.62109 556.40625 L 309.16016 521.34375 L 348.69922 486.2832 z M 369.98438 516.56055 C 365.84734 516.48233 361.75364 517.3915 357.88672 519.40039 C 338.0877 529.68619 338.37672 565.66708 358.42969 587.10547 C 364.62286 593.72652 370.26235 597.5403 376.94531 599.62891 C 382.60661 601.39822 386.33565 601.34143 392.35742 599.39648 C 399.07081 597.22828 405.24649 591.07857 408.19531 583.625 C 410.02551 578.99897 410.41775 576.15374 410.38672 567.68945 C 410.3527 558.89944 409.94856 556.30593 407.62109 550.02734 C 400.08929 529.70937 384.75951 516.83988 369.98438 516.56055 z M 375.80469 645.51562 C 367.17999 645.60908 358.11862 647.53715 350.96094 650.95312 C 326.89827 662.43718 321.717 686.51344 339.55078 703.97656 C 352.12251 716.28701 374.82954 721.86577 393.98047 717.34961 C 407.1864 714.23539 418.95394 706.03783 423.7793 696.58984 C 427.16152 689.96751 427.28187 677.29686 424.02539 670.68945 C 417.81154 658.08197 402.6773 648.71881 384.19727 646.04688 C 381.50571 645.65772 378.67959 645.48447 375.80469 645.51562 z "
       transform="scale(0.26458333)"
       id="circle845"
       inkscape:export-xdpi="500"
       inkscape:export-ydpi="500" />
    <path
       style="opacity:1;fill:#343a40;fill-opacity:1;fill-rule:evenodd;stroke:none;stroke-width:0.75824445;stroke-linecap:butt;stroke-linejoin:round;stroke-miterlimit:4;stroke-dasharray:none;stroke-dashoffset:0;stroke-opacity:1"
       d="M -300.64648 452.33203 A 188.97638 188.97638 0 0 0 -489.62305 641.30859 A 188.97638 188.97638 0 0 0 -344.34766 824.94531 C -341.8787 824.08575 -338.57994 820.43465 -337.58789 818.50977 C -336.7413 816.86707 -336.55859 813.21392 -336.55859 798.00586 L -336.55859 779.50195 L -338.16211 779.90625 C -342.2116 780.926 -349.72024 781.66733 -356.11133 781.67969 C -376.48343 781.71899 -390.94187 773.19543 -397.71875 757.15039 C -402.31825 746.26074 -408.61434 737.65975 -415.26562 733.17969 C -419.94169 730.03009 -423.48242 726.40671 -423.48242 724.76953 C -423.48242 722.87901 -420.95124 721.73242 -416.78125 721.73242 C -412.94537 721.73242 -405.27953 723.89541 -407.69336 724.29688 C -409.85468 724.65631 -409.75714 727.39974 -407.54688 728.41016 C -406.21622 729.01851 -405.66449 728.96829 -404.85938 728.16016 C -404.30216 727.60109 -404.03052 726.66146 -404.25586 726.07227 C -404.62814 725.09862 -404.48656 725.09837 -402.69922 726.07031 C -401.61763 726.65841 -399.99431 727.72503 -399.0918 728.44141 L -397.45117 729.74414 L -398.92188 730.21289 C -401.38462 730.99718 -400.80269 734.4003 -397.94922 735.90625 C -396.26635 736.79451 -394.95898 735.8534 -394.95898 733.75391 C -394.95898 732.47696 -394.90479 732.4718 -393.63672 733.62305 C -392.90935 734.28356 -390.33656 737.78085 -387.91797 741.39453 C -383.03051 748.69696 -380.69061 751.17464 -375.42383 754.62891 C -372.35281 756.64313 -371.9919 757.09694 -372.87695 757.83398 C -374.35789 759.06717 -374.14696 761.00557 -372.39844 762.23438 C -369.47131 764.29157 -365.75977 763.23617 -365.75977 760.3457 C -365.75977 759.20455 -365.42157 759.08486 -363.21289 759.45117 C -361.81228 759.68361 -359.60557 759.8767 -358.30859 759.88086 C -355.955 759.88842 -355.95311 759.89256 -357.49805 760.97656 C -360.88865 763.35944 -357.27201 767.12129 -353.02539 765.62891 C -350.80637 764.84911 -350.10162 762.10015 -351.80078 760.85352 C -352.72875 760.17263 -352.03982 759.84334 -347.62109 758.85938 C -344.71105 758.21134 -340.96854 757.1462 -339.30469 756.49219 C -336.31645 755.31755 -336.26465 755.24223 -335.04883 750.2793 C -333.43756 743.70224 -330.53854 737.58141 -327.36133 734.05273 C -325.92574 732.4583 -325.07274 730.97547 -325.41797 730.67383 C -325.75639 730.37827 -328.93612 729.74598 -332.48438 729.26953 C -381.32719 722.71137 -405.66676 694.63511 -406.06641 644.39453 C -406.14237 634.85281 -405.89332 630.86552 -404.94141 626.4375 C -402.66817 615.86042 -397.77481 605.55423 -391.15039 597.39453 L -387.96875 593.47656 L -389.05664 589.97656 C -392.62829 578.48136 -392.29368 564.64805 -388.12305 551.38867 C -386.91254 547.54021 -386.22437 546.35745 -384.89844 545.85156 C -382.7652 545.03779 -375.23765 546.04513 -368.81445 548.00391 C -362.8191 549.83229 -349.42816 556.34625 -342.33984 560.88281 C -339.35729 562.7917 -336.48795 564.1885 -335.96289 563.98633 C -334.0542 563.25144 -318.40075 560.27365 -312.11133 559.44922 C -308.56309 558.98407 -299.39501 558.60747 -291.73828 558.61133 C -276.73758 558.61889 -267.14073 559.63585 -254.23047 562.58789 L -246.94336 564.25391 L -240.98828 560.48242 C -228.56221 552.61224 -215.6531 547.26084 -205.76562 545.88086 C -198.7911 544.90748 -197.75149 545.46884 -196.00195 551.15234 C -191.82986 564.70565 -191.52241 578.29736 -195.12109 590.00781 L -196.20703 593.54102 L -194.09961 595.94727 C -182.33735 609.389 -176.86613 627.06729 -177.94531 648.14258 C -179.94046 687.10524 -194.54378 710.42168 -224.28906 722.13867 C -231.67293 725.04725 -243.99075 728.16155 -252.52148 729.27734 C -256.16311 729.75364 -259.14258 730.43666 -259.14258 730.79492 C -259.14258 731.15322 -258.03845 732.67172 -256.68945 734.16992 C -253.90959 737.25734 -250.92258 743.30023 -249.19531 749.32812 C -248.18908 752.8398 -247.96929 757.93359 -247.64062 785.44141 C -247.35285 809.52849 -247.04274 817.843 -246.39258 818.98438 C -245.68814 820.221 -244.81667 820.74274 -243.34766 821.15625 A 188.97638 188.97638 0 0 0 -111.66992 641.30859 A 188.97638 188.97638 0 0 0 -300.64648 452.33203 z M -392.36914 739.05469 C -393.43455 739.07144 -394.28125 739.94593 -394.28125 741.66602 C -394.28125 745.52605 -390.41334 747.83245 -388.85156 744.9043 C -388.30999 743.889 -388.38328 743.05362 -389.14062 741.58398 C -390.01995 739.87779 -391.30373 739.03794 -392.36914 739.05469 z M -382.9375 751.12305 C -383.13153 751.11161 -383.32586 751.11702 -383.51953 751.14453 C -385.99796 751.49678 -386.11062 755.18235 -383.70117 757.08398 C -381.54448 758.7862 -380.47758 758.88589 -379.11133 757.51562 C -377.22819 755.62612 -380.02702 751.29461 -382.9375 751.12305 z M -339.45312 760.01172 C -342.49414 759.88221 -345.15501 762.81739 -343.32227 765.0332 C -342.1384 766.46447 -338.35262 766.27152 -336.94336 764.70898 C -335.33716 762.92818 -335.83452 761.07868 -338.13867 760.26562 C -338.57666 760.11108 -339.01869 760.03022 -339.45312 760.01172 z "
       transform="scale(0.26458333)"
       id="circle845-3"
       inkscape:export-xdpi="500"
       inkscape:export-ydpi="500" />
  </g>
</svg>
